<?xml version="1.0" encoding="UTF-8"?>
<svg width="300px" height="300px" viewBox="0 0 300 300" version="1.1" xmlns="http://www.w3.org/2000/svg" xmlns:xlink="http://www.w3.org/1999/xlink">
    <title>vestige</title>
    <g id="Page-1" stroke="none" stroke-width="1" fill="none" fill-rule="evenodd">
        <g id="vestige" fill-rule="nonzero">
            <rect id="Rectangle" fill="#D64430" x="0" y="0" width="300" height="300"></rect>
            <g id="8a1c6715-3211-4e5b-815b-57854f39cf08" transform="translate(37.670352, 192.666668)" fill="#FFFFFF">
                <path d="M31.832104,18.543936 L31.832104,18.543936 C34.4434604,18.543936 36.2119106,18.4447705 37.1374546,18.2464397 L37.1374546,18.2464397 L37.1374546,19.7339212 L37.1374546,19.7339212 C36.1788555,20.0314175 35.2863666,20.6925203 34.459988,21.7172298 L34.459988,21.7172298 L34.459988,21.7172298 C33.6666645,22.7419393 32.9229237,24.3120586 32.2287657,26.4275879 L32.2287657,26.4275879 L22.8576323,54.2930745 L22.8576323,54.2930745 C22.1304191,54.1939091 21.0230718,54.1443264 19.5355903,54.1443264 L19.5355903,54.1443264 L19.5355903,54.1443264 C18.0150537,54.1443264 16.8746512,54.1939091 16.1143829,54.2930745 L16.1143829,54.2930745 L4.06578275,23.601373 L4.06578275,23.601373 C3.04107328,21.0230718 1.68581236,19.7339212 0,19.7339212 L0,19.7339212 L0,18.2464397 L0,18.2464397 C3.66912102,18.543936 7.80101406,18.6926841 12.3956791,18.6926841 L12.3956791,18.6926841 L12.3956791,18.6926841 C14.7095392,18.6926841 17.7175574,18.543936 21.4197335,18.2464397 L21.4197335,18.2464397 L21.4197335,19.7339212 L21.4197335,19.7339212 C19.9653072,19.7339212 18.9240701,19.816559 18.2960224,19.9818347 L18.2960224,19.9818347 L18.2960224,19.9818347 C17.6679746,20.1801656 17.3539508,20.6759928 17.3539508,21.4693162 L17.3539508,21.4693162 L17.3539508,21.4693162 C17.3539508,21.6015368 17.4035335,21.8990331 17.5026989,22.3618051 L17.5026989,22.3618051 L25.0888545,43.3848769 L28.2621484,33.8154126 L28.2621484,33.8154126 C29.1546373,31.137946 29.6008817,28.7745031 29.6008817,26.7250842 L29.6008817,26.7250842 L29.6008817,26.7250842 C29.6008817,24.5434447 29.1381097,22.8576323 28.2125657,21.6676471 L28.2125657,21.6676471 L28.2125657,21.6676471 C27.2870216,20.4446068 26.0639813,19.8000314 24.5434447,19.7339212 L24.5434447,19.7339212 L24.5434447,18.2464397 L24.5434447,18.2464397 C26.229257,18.4447705 28.6588101,18.543936 31.832104,18.543936 L31.832104,18.543936 Z M60.1934178,47.6985733 L60.1934178,47.6985733 C63.5650425,47.6985733 66.3747298,46.1449815 68.6224796,43.0377979 L68.6224796,43.0377979 L69.7628821,43.4344596 L69.7628821,43.4344596 C68.7712278,46.6738638 67.0523603,49.4504959 64.6062796,51.764356 L64.6062796,51.764356 L64.6062796,51.764356 C62.193254,54.0782161 59.0860705,55.2351462 55.2847289,55.2351462 L55.2847289,55.2351462 L55.2847289,55.2351462 C50.4256227,55.2351462 46.5416432,53.7311371 43.6327905,50.723119 L43.6327905,50.723119 L43.6327905,50.723119 C40.6908827,47.7151008 39.2199287,42.9055773 39.2199287,36.2945485 L39.2199287,36.2945485 L39.2199287,36.2945485 C39.2199287,29.9479608 40.8561584,25.18802 44.1286177,22.0147261 L44.1286177,22.0147261 L44.1286177,22.0147261 C47.401077,18.8744874 51.7147733,17.3043681 57.0697067,17.3043681 L57.0697067,17.3043681 L57.0697067,17.3043681 C65.8293199,17.3043681 70.2091265,22.4774981 70.2091265,32.8237583 L70.2091265,32.8237583 L52.3097659,32.8237583 L52.3097659,32.8237583 C52.2436556,33.3856958 52.2106005,34.2286019 52.2106005,35.3524769 L52.2106005,35.3524769 L52.2106005,35.3524769 C52.2106005,39.7818662 52.9873963,42.9386325 54.5409881,44.8227757 L54.5409881,44.8227757 L54.5409881,44.8227757 C56.0945799,46.7399741 57.9787231,47.6985733 60.1934178,47.6985733 L60.1934178,47.6985733 Z M56.5738795,18.891015 L56.5738795,18.891015 C53.9955782,18.891015 52.4750416,23.1055459 52.0122696,31.5346077 L52.0122696,31.5346077 L60.0446697,31.5346077 L60.0446697,31.5346077 C60.1107799,27.8324315 59.8463388,24.7913582 59.2513462,22.4113879 L59.2513462,22.4113879 L59.2513462,22.4113879 C58.6894087,20.0644726 57.7969198,18.891015 56.5738795,18.891015 L56.5738795,18.891015 Z M88.0589045,17.3043681 L88.0589045,17.3043681 C89.8438823,17.3043681 91.5462222,17.4861713 93.1659243,17.8497779 L93.1659243,17.8497779 L93.1659243,17.8497779 C94.7525712,18.2464397 95.959084,18.6761565 96.7854626,19.1389286 L96.7854626,19.1389286 L96.7854626,19.1389286 C97.2812897,19.4364249 97.694479,19.585173 98.0250305,19.585173 L98.0250305,19.585173 L98.0250305,19.585173 C99.0166848,19.585173 99.5951498,18.8414323 99.7604256,17.3539508 L99.7604256,17.3539508 L101.148742,17.3539508 L101.148742,17.3539508 C100.983466,19.7669763 100.900828,23.9319245 100.900828,29.8487953 L100.900828,29.8487953 L99.512512,29.8487953 L99.512512,29.8487953 C99.1158502,26.807722 98.2398889,24.2294208 96.884628,22.1138916 L96.884628,22.1138916 L96.884628,22.1138916 C95.5293671,19.9983623 93.5460584,18.9405977 90.934702,18.9405977 L90.934702,18.9405977 L90.934702,18.9405977 C89.777772,18.9405977 88.8191728,19.2876767 88.0589045,19.9818347 L88.0589045,19.9818347 L88.0589045,19.9818347 C87.265581,20.6759928 86.8689193,21.634592 86.8689193,22.8576323 L86.8689193,22.8576323 L86.8689193,22.8576323 C86.8689193,24.3781689 87.381274,25.7334299 88.4059835,26.923415 L88.4059835,26.923415 L88.4059835,26.923415 C89.3976378,28.0803451 90.9842847,29.5182439 93.1659243,31.2371114 L93.1659243,31.2371114 L93.1659243,31.2371114 C93.2650897,31.2701665 93.9427202,31.7990488 95.1988156,32.8237583 L95.1988156,32.8237583 L95.1988156,32.8237583 C97.7771169,34.9723427 99.6777877,36.8564859 100.900828,38.476188 L100.900828,38.476188 L100.900828,38.476188 C102.090813,40.1289452 102.685806,42.1618366 102.685806,44.5748621 L102.685806,44.5748621 L102.685806,44.5748621 C102.685806,46.5912259 102.057758,48.4257864 100.801663,50.0785436 L100.801663,50.0785436 L100.801663,50.0785436 C99.5455671,51.7313009 97.8432272,53.0039239 95.6946428,53.8964128 L95.6946428,53.8964128 L95.6946428,53.8964128 C93.5460584,54.7889017 91.1991432,55.2351462 88.6538971,55.2351462 L88.6538971,55.2351462 L88.6538971,55.2351462 C85.7450444,55.2351462 83.365074,54.6566811 81.5139859,53.4997511 L81.5139859,53.4997511 L81.5139859,53.4997511 C80.7206624,53.1030894 80.0760871,52.8055931 79.58026,52.6072622 L79.58026,52.6072622 L79.58026,52.6072622 C79.0513776,52.4419865 78.5390229,52.3593486 78.0431957,52.3593486 L78.0431957,52.3593486 L78.0431957,52.3593486 C77.1507068,52.3593486 76.5061315,53.1691996 76.1094698,54.7889017 L76.1094698,54.7889017 L74.7211537,54.7889017 L74.7211537,54.7889017 C74.8864295,52.1444902 74.9690673,47.51677 74.9690673,40.9057411 L74.9690673,40.9057411 L76.3573834,40.9057411 L76.3573834,40.9057411 C76.7871003,44.6740276 77.8118097,47.7151008 79.4315118,50.0289609 L79.4315118,50.0289609 L79.4315118,50.0289609 C81.0512139,52.342821 83.0841053,53.4997511 85.5301859,53.4997511 L85.5301859,53.4997511 L85.5301859,53.4997511 C86.687116,53.4997511 87.6457152,53.1857272 88.4059835,52.5576795 L88.4059835,52.5576795 L88.4059835,52.5576795 C89.1662518,51.8965766 89.546386,50.9379774 89.546386,49.6818819 L89.546386,49.6818819 L89.546386,49.6818819 C89.546386,48.3927313 89.2819448,47.2358012 88.7530625,46.2110918 L88.7530625,46.2110918 L88.7530625,46.2110918 C88.2241802,45.2194374 87.5796049,44.310421 86.8193366,43.4840424 L86.8193366,43.4840424 L86.8193366,43.4840424 C86.0590682,42.6907189 84.8195003,41.5172613 83.1006328,39.9636695 L83.1006328,39.9636695 L83.1006328,39.9636695 C81.1503793,38.1786917 79.6794254,36.7573205 78.6877711,35.6995559 L78.6877711,35.6995559 L78.6877711,35.6995559 C77.6630616,34.6087361 76.7871003,33.3691682 76.0598871,31.9808521 L76.0598871,31.9808521 L76.0598871,31.9808521 C75.3326739,30.5594809 74.9690673,28.9893616 74.9690673,27.2704941 L74.9690673,27.2704941 L74.9690673,27.2704941 C74.9690673,25.2871854 75.5805875,23.5352628 76.8036278,22.0147261 L76.8036278,22.0147261 L76.8036278,22.0147261 C77.993613,20.4941895 79.58026,19.3207319 81.5635686,18.4943532 L81.5635686,18.4943532 L81.5635686,18.4943532 C83.5799324,17.7010298 85.7450444,17.3043681 88.0589045,17.3043681 L88.0589045,17.3043681 Z M122.270979,6.99116302 L122.270979,18.2464397 L129.063811,18.2464397 L129.063811,19.6347557 L122.270979,19.6347557 L122.270979,48.442314 L122.270979,48.442314 C122.270979,49.367858 122.436255,50.0124334 122.766806,50.3760399 L122.766806,50.3760399 L122.766806,50.3760399 C123.064302,50.7727017 123.593185,50.9710325 124.353453,50.9710325 L124.353453,50.9710325 L124.353453,50.9710325 C124.91539,50.9710325 125.543438,50.8057568 126.237596,50.4752054 L126.237596,50.4752054 L126.237596,50.4752054 C126.931754,50.1446539 127.543274,49.6322992 128.072157,48.9381412 L128.072157,48.9381412 L129.113394,49.7810473 L129.113394,49.7810473 C126.997864,53.4171132 123.725405,55.2351462 119.296016,55.2351462 L119.296016,55.2351462 L119.296016,55.2351462 C116.089667,55.2351462 113.693169,54.4583503 112.106522,52.9047585 L112.106522,52.9047585 L112.106522,52.9047585 C111.147923,51.9131042 110.519875,50.7065914 110.222379,49.2852202 L110.222379,49.2852202 L110.222379,49.2852202 C109.924882,47.863849 109.776134,45.8474852 109.776134,43.2361288 L109.776134,43.2361288 L109.776134,19.6347557 L104.470784,19.6347557 L104.470784,18.2464397 L109.776134,18.2464397 L109.776134,10.0652914 L109.776134,10.0652914 C112.25527,10.0652914 114.50302,9.81737786 116.519384,9.3215507 L116.519384,9.3215507 L116.519384,9.3215507 C118.535748,8.85877868 120.452946,8.08198279 122.270979,6.99116302 L122.270979,6.99116302 Z M140.219922,-8.84472198e-15 L140.219922,-8.84472198e-15 C142.632948,-8.84472198e-15 144.500563,0.512354737 145.822769,1.53706421 L145.822769,1.53706421 L145.822769,1.53706421 C147.144975,2.56177368 147.806078,4.03272761 147.806078,5.94992598 L147.806078,5.94992598 L147.806078,5.94992598 C147.806078,7.90017949 147.144975,9.38766099 145.822769,10.4123705 L145.822769,10.4123705 L145.822769,10.4123705 C144.500563,11.4370799 142.632948,11.9494347 140.219922,11.9494347 L140.219922,11.9494347 L140.219922,11.9494347 C137.773842,11.9494347 135.906226,11.4370799 134.617075,10.4123705 L134.617075,10.4123705 L134.617075,10.4123705 C133.327925,9.38766099 132.683349,7.90017949 132.683349,5.94992598 L132.683349,5.94992598 L132.683349,5.94992598 C132.683349,4.03272761 133.327925,2.56177368 134.617075,1.53706421 L134.617075,1.53706421 L134.617075,1.53706421 C135.906226,0.512354737 137.773842,-8.84472198e-15 140.219922,-8.84472198e-15 L140.219922,-8.84472198e-15 Z M146.913589,17.5026989 L146.913589,47.8473214 L146.913589,47.8473214 C146.913589,49.7314646 147.194558,51.0371428 147.756495,51.764356 L147.756495,51.764356 L147.756495,51.764356 C148.351488,52.458514 149.35967,52.8055931 150.781041,52.8055931 L150.781041,52.8055931 L150.781041,54.2930745 L150.781041,54.2930745 C145.789714,54.0947437 142.500727,53.9955782 140.91408,53.9955782 L140.91408,53.9955782 L140.91408,53.9955782 C139.360488,53.9955782 135.889698,54.0947437 130.50171,54.2930745 L130.50171,54.2930745 L130.50171,52.8055931 L130.50171,52.8055931 C131.956136,52.8055931 132.964318,52.458514 133.526255,51.764356 L133.526255,51.764356 L133.526255,51.764356 C134.121248,51.0371428 134.418744,49.7314646 134.418744,47.8473214 L134.418744,47.8473214 L134.418744,25.8325953 L134.418744,25.8325953 C134.418744,23.6840109 134.121248,22.1304191 133.526255,21.1718199 L133.526255,21.1718199 L133.526255,21.1718199 C132.964318,20.2132208 131.956136,19.7339212 130.50171,19.7339212 L130.50171,19.7339212 L130.50171,18.2464397 L130.50171,18.2464397 C131.989191,18.3786602 133.42709,18.4447705 134.815406,18.4447705 L134.815406,18.4447705 L134.815406,18.4447705 C139.641457,18.4447705 143.674185,18.1307467 146.913589,17.5026989 L146.913589,17.5026989 Z M187.769747,25.2871854 L187.769747,25.2871854 C186.811148,25.2871854 185.968242,24.9401064 185.241029,24.2459484 L185.241029,24.2459484 L185.241029,24.2459484 C184.546871,23.5848455 184.199792,22.6593014 184.199792,21.4693162 L184.199792,21.4693162 L184.199792,21.4693162 C184.199792,20.3454413 184.513816,19.1389286 185.141863,17.8497779 L185.141863,17.8497779 L185.141863,17.8497779 C183.1255,18.6761565 181.62149,19.8496142 180.629836,21.3701508 L180.629836,21.3701508 L180.629836,21.3701508 C182.348704,23.1881837 183.208137,25.535099 183.208137,28.4108965 L183.208137,28.4108965 L183.208137,28.4108965 C183.208137,32.0469624 181.852876,34.807067 179.142355,36.6912102 L179.142355,36.6912102 L179.142355,36.6912102 C176.431833,38.5753534 172.812295,39.517425 168.28374,39.517425 L168.28374,39.517425 L168.28374,39.517425 C167.391251,39.517425 166.746676,39.4843699 166.350014,39.4182596 L166.350014,39.4182596 L166.350014,39.4182596 C165.126973,40.2446382 164.515453,41.219765 164.515453,42.3436399 L164.515453,42.3436399 L164.515453,42.3436399 C164.515453,43.8311214 165.358359,44.5748621 167.044172,44.5748621 L167.044172,44.5748621 L173.787421,44.5748621 L173.787421,44.5748621 C178.481252,44.5748621 182.1669,45.3681856 184.844367,46.9548325 L184.844367,46.9548325 L184.844367,46.9548325 C187.488779,48.5414794 188.810984,51.0371428 188.810984,54.4418227 L188.810984,54.4418227 L188.810984,54.4418227 C188.810984,56.8217931 188.034188,58.986905 186.480597,60.9371586 L186.480597,60.9371586 L186.480597,60.9371586 C184.96006,62.8874121 182.58009,64.4410039 179.340686,65.5979339 L179.340686,65.5979339 L179.340686,65.5979339 C176.134337,66.754864 172.118136,67.333329 167.292085,67.333329 L167.292085,67.333329 L167.292085,67.333329 C162.532145,67.333329 158.796913,66.8044467 156.086391,65.7466821 L156.086391,65.7466821 L156.086391,65.7466821 C153.342815,64.6889174 151.971026,63.1849084 151.971026,61.2346549 L151.971026,61.2346549 L151.971026,61.2346549 C151.971026,59.8793939 152.648656,58.6563536 154.003917,57.5655338 L154.003917,57.5655338 L154.003917,57.5655338 C155.326123,56.4416589 157.359015,55.54917 160.102592,54.8880671 L160.102592,54.8880671 L160.79675,56.0284696 L160.79675,56.0284696 C159.540654,57.5490063 158.912606,59.0199602 158.912606,60.4413314 L158.912606,60.4413314 L158.912606,60.4413314 C158.912606,62.2593643 159.738985,63.664208 161.391742,64.6558623 L161.391742,64.6558623 L161.391742,64.6558623 C163.011444,65.6475166 165.308777,66.1433438 168.28374,66.1433438 L168.28374,66.1433438 L168.28374,66.1433438 C171.324813,66.1433438 173.671728,65.5318236 175.324485,64.3087833 L175.324485,64.3087833 L175.324485,64.3087833 C176.977243,63.0857429 177.803621,61.4495133 177.803621,59.4000943 L177.803621,59.4000943 L177.803621,59.4000943 C177.803621,57.9787231 177.258211,56.8383207 176.167392,55.9788869 L176.167392,55.9788869 L176.167392,55.9788869 C175.076572,55.1194532 173.159374,54.6897363 170.415797,54.6897363 L170.415797,54.6897363 L166.697093,54.6897363 L166.697093,54.6897363 C163.556854,54.6897363 161.143829,54.0947437 159.458016,52.9047585 L159.458016,52.9047585 L159.458016,52.9047585 C157.805259,51.6817181 156.97888,50.0620161 156.97888,48.0456523 L156.97888,48.0456523 L156.97888,48.0456523 C156.97888,46.1945642 157.639983,44.5748621 158.962189,43.1865461 L158.962189,43.1865461 L158.962189,43.1865461 C160.284395,41.79823 162.185066,40.4925518 164.664201,39.2695115 L164.664201,39.2695115 L164.664201,39.2695115 C161.160356,38.8067394 158.400252,37.666337 156.383888,35.848304 L156.383888,35.848304 L156.383888,35.848304 C154.367524,34.0302711 153.359342,31.5511353 153.359342,28.4108965 L153.359342,28.4108965 L153.359342,28.4108965 C153.359342,24.7417755 154.714603,21.9651434 157.425125,20.0810002 L157.425125,20.0810002 L157.425125,20.0810002 C160.135647,18.2299121 163.755185,17.3043681 168.28374,17.3043681 L168.28374,17.3043681 L168.28374,17.3043681 C173.142846,17.3043681 176.894605,18.31255 179.539016,20.3289138 L179.539016,20.3289138 L179.539016,20.3289138 C180.39845,19.1389286 181.456215,18.1968569 182.71231,17.5026989 L182.71231,17.5026989 L182.71231,17.5026989 C183.968406,16.8085409 185.290611,16.4614619 186.678928,16.4614619 L186.678928,16.4614619 L186.678928,16.4614619 C188.199464,16.4614619 189.372922,16.8911787 190.1993,17.7506125 L190.1993,17.7506125 L190.1993,17.7506125 C191.058734,18.6100463 191.488451,19.700866 191.488451,21.0230718 L191.488451,21.0230718 L191.488451,21.0230718 C191.488451,22.3122224 191.141372,23.3369319 190.447214,24.0972002 L190.447214,24.0972002 L190.447214,24.0972002 C189.753056,24.8905237 188.860567,25.2871854 187.769747,25.2871854 L187.769747,25.2871854 Z M168.28374,38.2282744 L168.28374,38.2282744 C169.209284,38.2282744 169.919969,37.4845337 170.415797,35.9970522 L170.415797,35.9970522 L170.415797,35.9970522 C170.878569,34.4765155 171.109955,31.947797 171.109955,28.4108965 L171.109955,28.4108965 L171.109955,28.4108965 C171.109955,24.840941 170.878569,22.2956948 170.415797,20.7751582 L170.415797,20.7751582 L170.415797,20.7751582 C169.919969,19.2876767 169.209284,18.543936 168.28374,18.543936 L168.28374,18.543936 L168.28374,18.543936 C167.358196,18.543936 166.64751,19.2876767 166.151683,20.7751582 L166.151683,20.7751582 L166.151683,20.7751582 C165.688911,22.2956948 165.457525,24.840941 165.457525,28.4108965 L165.457525,28.4108965 L165.457525,28.4108965 C165.457525,31.947797 165.688911,34.4765155 166.151683,35.9970522 L166.151683,35.9970522 L166.151683,35.9970522 C166.64751,37.4845337 167.358196,38.2282744 168.28374,38.2282744 L168.28374,38.2282744 Z M214.64358,47.6985733 L214.64358,47.6985733 C218.015204,47.6985733 220.824892,46.1449815 223.072641,43.0377979 L223.072641,43.0377979 L224.213044,43.4344596 L224.213044,43.4344596 C223.22139,46.6738638 221.502522,49.4504959 219.056441,51.764356 L219.056441,51.764356 L219.056441,51.764356 C216.643416,54.0782161 213.536232,55.2351462 209.734891,55.2351462 L209.734891,55.2351462 L209.734891,55.2351462 C204.875785,55.2351462 200.991805,53.7311371 198.082952,50.723119 L198.082952,50.723119 L198.082952,50.723119 C195.141045,47.7151008 193.670091,42.9055773 193.670091,36.2945485 L193.670091,36.2945485 L193.670091,36.2945485 C193.670091,29.9479608 195.30632,25.18802 198.57878,22.0147261 L198.57878,22.0147261 L198.57878,22.0147261 C201.851239,18.8744874 206.164935,17.3043681 211.519869,17.3043681 L211.519869,17.3043681 L211.519869,17.3043681 C220.279482,17.3043681 224.659288,22.4774981 224.659288,32.8237583 L224.659288,32.8237583 L206.759928,32.8237583 L206.759928,32.8237583 C206.693817,33.3856958 206.660762,34.2286019 206.660762,35.3524769 L206.660762,35.3524769 L206.660762,35.3524769 C206.660762,39.7818662 207.437558,42.9386325 208.99115,44.8227757 L208.99115,44.8227757 L208.99115,44.8227757 C210.544742,46.7399741 212.428885,47.6985733 214.64358,47.6985733 L214.64358,47.6985733 Z M211.024041,18.891015 L211.024041,18.891015 C208.44574,18.891015 206.925203,23.1055459 206.462431,31.5346077 L206.462431,31.5346077 L214.494832,31.5346077 L214.494832,31.5346077 C214.560942,27.8324315 214.296501,24.7913582 213.701508,22.4113879 L213.701508,22.4113879 L213.701508,22.4113879 C213.139571,20.0644726 212.247082,18.891015 211.024041,18.891015 L211.024041,18.891015 Z" id="Shape"></path>
            </g>
            <g id="4c596268-8e71-442a-80eb-1394b90eea3d" transform="translate(82.666667, 40.000000)" fill="#E5914C">
                <path d="M74.4557037,65.4764296 L92.409763,65.4764296 L92.409763,47.5193778 L74.4557037,47.5193778 L74.4557037,65.4764296 Z M29.5683111,47.5193778 L11.6112593,47.5193778 L11.6112593,65.4764296 L29.5683111,65.4764296 L29.5683111,47.5193778 Z M8.97777778,44.8873926 L17.9555556,44.8873926 L17.9555556,35.9141037 L8.97777778,35.9141037 L8.97777778,44.8873926 Z M125.688889,62.8444444 L125.688889,35.9141037 L116.709615,35.9141037 L116.709615,26.9363259 L107.733333,26.9363259 L107.733333,17.9570519 L89.7807704,17.9570519 L89.7807704,8.97927407 L80.7970074,8.97927407 L80.7970074,0 L53.868163,0 L53.868163,8.97927407 L44.8888889,8.97927407 L44.8888889,17.9570519 L26.9363259,17.9570519 L26.9363259,26.9363259 L17.9570519,26.9363259 L17.9570519,35.9141037 L35.9141037,35.9141037 L35.9141037,44.8873926 L44.8888889,44.8873926 L44.8888889,71.8222222 L35.9141037,71.8222222 L35.9141037,80.8014963 L17.9570519,80.8014963 L17.9570519,71.8222222 L8.97927407,71.8222222 L8.97927407,62.8444444 L0,62.8444444 L0,134.666667 L8.97777778,134.666667 L8.97777778,125.687393 L17.9555556,125.687393 L17.9555556,116.709615 L26.9348296,116.709615 L26.9348296,125.687393 L35.9126074,125.687393 L35.9126074,134.666667 L53.8636741,134.666667 L53.8636741,116.709615 L80.8,116.709615 L80.8,134.666667 L98.7570519,134.666667 L98.7570519,125.687393 L107.733333,125.687393 L107.733333,116.709615 L116.709615,116.709615 L116.709615,125.687393 L125.688889,125.687393 L125.688889,134.666667 L134.666667,134.666667 L134.666667,62.8444444 L125.688889,62.8444444 Z M62.8444444,107.733333 L44.8888889,107.733333 L44.8888889,89.7762815 L62.8444444,89.7762815 L62.8444444,107.733333 Z M107.736326,71.8222222 L107.733333,71.8297037 L107.733333,71.8222222 L98.7585481,71.8222222 L98.7585481,80.8014963 L80.8014963,80.8014963 L80.8014963,80.8209481 L80.7970074,80.8014963 L80.7970074,71.8222222 L71.8222222,71.8222222 L71.8222222,44.8873926 L80.7970074,44.8873926 L80.7970074,35.9141037 L98.7585481,35.9141037 L98.7585481,44.8873926 L107.736326,44.8873926 L107.736326,71.8222222 Z" id="Shape"></path>
            </g>
        </g>
    </g>
</svg>